<svg width="64" height="63" viewBox="0 0 64 63" fill="none" xmlns="http://www.w3.org/2000/svg">
<path d="M54.3029 22.7423C59.4102 34.8315 53.6549 48.6372 41.4481 53.5783C29.2414 58.5194 15.2055 52.7248 10.0982 40.6356C4.99088 28.5464 10.7461 14.7407 22.9529 9.79959C35.1597 4.85849 49.1956 10.6531 54.3029 22.7423Z" fill="white"/>
<path fill-rule="evenodd" clip-rule="evenodd" d="M40.6775 51.7542C51.8671 47.2249 57.1427 34.5696 52.461 23.4878C47.7793 12.4061 34.9131 7.09436 23.7236 11.6237C12.534 16.1531 7.25835 28.8083 11.9401 39.8901C16.6218 50.9718 29.488 56.2835 40.6775 51.7542ZM41.4481 53.5783C53.6549 48.6372 59.4102 34.8315 54.3029 22.7423C49.1956 10.6531 35.1597 4.85849 22.9529 9.79959C10.7461 14.7407 4.99088 28.5464 10.0982 40.6356C15.2055 52.7248 29.2414 58.5194 41.4481 53.5783Z" fill="black"/>
<path d="M52.3395 23.0699L11.7593 39.5039C9.30127 32.8303 8.25873 17.9144 23.753 11.6396C39.2472 5.36481 49.2666 16.6453 52.3395 23.0699Z" fill="#FFE39A"/>
<path fill-rule="evenodd" clip-rule="evenodd" d="M53.8372 23.9719L12.2614 40.8673L11.4883 39.0301L53.064 22.1347L53.8372 23.9719Z" fill="black"/>
<path d="M41.41 27.9612C43.538 32.9983 41.14 38.7507 36.0538 40.8095C30.9677 42.8683 25.1194 40.4539 22.9914 35.4167C20.8633 30.3796 23.2613 24.6272 28.3475 22.5684C33.4337 20.5096 39.2819 22.924 41.41 27.9612Z" fill="white"/>
<path fill-rule="evenodd" clip-rule="evenodd" d="M35.2832 38.9854C39.3521 37.3384 41.2705 32.7365 39.5681 28.7067C37.8657 24.677 33.1871 22.7455 29.1181 24.3925C25.0492 26.0395 23.1308 30.6415 24.8332 34.6712C26.5357 38.7009 31.2143 40.6324 35.2832 38.9854ZM36.0538 40.8095C41.14 38.7507 43.538 32.9983 41.41 27.9612C39.2819 22.924 33.4337 20.5096 28.3475 22.5684C23.2613 24.6272 20.8633 30.3796 22.9914 35.4167C25.1194 40.4539 30.9677 42.8683 36.0538 40.8095Z" fill="black"/>
</svg>
